<svg viewBox="0 0 80 80" xmlns="http://www.w3.org/2000/svg" width="80" height="80">
  <rect width="80" height="80" rx="16" fill="#FFFFFF" />
    <g transform="translate(40, 40)">
  <g transform="rotate(10, 0, 0)">
      <circle cx="0" cy="0" r="30" fill="none" stroke="#C4A46B" stroke-width="2.5" />
      <g transform="rotate(45)">
        <rect x="-25" y="-25" width="50" height="50" fill="#2D5A27" rx="3" />
        <line x1="-25" y1="0" x2="-6" y2="0" stroke="#F5F5F0" stroke-width="1.5" />
        <line x1="0" y1="-25" x2="0" y2="-6" stroke="#F5F5F0" stroke-width="1.5" />
        <rect x="-22" y="-3" width="6" height="6" fill="#F5F5F0" rx="1" />
        <rect x="-3" y="-22" width="6" height="6" fill="#F5F5F0" rx="1" />
      </g>
      <line x1="-35" y1="0" x2="35" y2="0" stroke="#F5F5F0" stroke-width="1.5" />
      <line x1="-3" y1="10" x2="3" y2="10" stroke="#F5F5F0" stroke-width="1.5" />
      <line x1="-3" y1="16" x2="3" y2="16" stroke="#F5F5F0" stroke-width="1.5" />
      <line x1="-3" y1="22" x2="3" y2="22" stroke="#F5F5F0" stroke-width="1.5" />
      <line x1="-3" y1="28" x2="3" y2="28" stroke="#F5F5F0" stroke-width="1.5" />
      <polygon points="0,-25 -5,-17 0,-20 5,-17" fill="#C4A46B" />
      <circle cx="0" cy="0" r="5" fill="#8B6914" stroke="#F5F5F0" stroke-width="1.5" />
    </g>
  </g>
</svg>
